<svg width="179" height="45" viewBox="0 0 179 45" fill="none" xmlns="http://www.w3.org/2000/svg">
<path d="M51.5443 25.9003C51.5137 32.3095 49.1431 38.1643 45.2431 42.6589C45.2028 42.7057 45.1625 42.7508 45.1222 42.7959C43.5332 44.5993 40.6695 44.43 39.29 42.4623L37.514 39.9289C37.3271 39.6614 37.369 39.2956 37.6139 39.078C38.4858 38.3029 39.2803 37.4423 39.9845 36.5108C40.2279 36.1885 40.7162 36.203 40.9483 36.5334H40.9499L41.3979 37.1748C41.3979 37.1748 41.3979 37.1764 41.3979 37.178C42.0473 38.1047 43.4285 38.0563 44.0247 37.0942C44.0892 36.9911 44.1521 36.8863 44.2149 36.7816C46.1536 33.5455 47.2608 29.7535 47.2479 25.7037C47.2108 13.9827 37.6591 4.38426 25.9381 4.29562C14.0013 4.20538 4.29804 13.8554 4.29804 25.773C4.29804 29.7648 5.38585 33.5036 7.2875 36.7058C7.302 36.7316 7.31651 36.7574 7.33101 36.7816C7.39547 36.8895 7.45994 36.9959 7.52601 37.1023C8.12068 38.0595 9.49373 38.1063 10.14 37.1828H10.1416H10.1432L10.5944 36.5382C10.8281 36.2062 11.3196 36.1917 11.5646 36.5156C12.2688 37.4455 13.0633 38.3045 13.9336 39.078C14.1786 39.2956 14.2205 39.6598 14.0335 39.9289L12.2576 42.4623C10.8765 44.4317 8.01109 44.5993 6.42209 42.7943C6.38341 42.7492 6.34312 42.7041 6.30444 42.6589C2.37545 38.1337 0 32.2305 0 25.773C0 11.4719 11.6484 -0.108785 25.9736 0.000801903C40.1199 0.108777 51.612 11.7539 51.5443 25.9003Z" fill="#92FC05"/>
<path d="M37.1996 31.191C37.5138 31.6391 37.5428 32.2337 37.2592 32.7043C37.2576 32.7075 37.256 32.7107 37.2544 32.7124C36.8531 33.3747 36.397 33.9984 35.891 34.5785C35.2915 35.2667 34.2085 35.2167 33.6847 34.4706L31.7525 31.7148C31.7525 31.7148 31.7509 31.7148 31.7492 31.7116C31.6235 31.5101 31.4866 31.3151 31.3415 31.1282C31.3335 31.1169 31.3254 31.1056 31.3157 31.0943C31.0724 30.7849 30.8049 30.4965 30.5132 30.2322C29.3287 29.1524 27.7719 28.4723 26.0604 28.4046C25.9653 28.3998 25.8686 28.3982 25.772 28.3982C25.6382 28.3982 25.506 28.4014 25.3755 28.4095C23.6495 28.5046 22.0895 29.2217 20.9147 30.3401C20.6585 30.5835 20.4216 30.8462 20.204 31.125C20.2024 31.1282 20.1992 31.1314 20.1976 31.1346C20.0638 31.3055 19.9397 31.4843 19.8221 31.6681C19.8172 31.6745 19.8124 31.6826 19.8076 31.689L17.8576 34.4706C17.3338 35.2183 16.2508 35.2667 15.6513 34.5802C15.1453 34 14.6892 33.3747 14.2896 32.7124C14.2896 32.7091 14.2863 32.7075 14.2847 32.7043C13.9995 32.2353 14.0285 31.6391 14.3443 31.1894L15.9817 28.8543L15.9849 28.8494L16.1976 28.5465L16.2138 28.5223C16.7778 27.7455 17.4337 27.0396 18.167 26.4224C19.3853 25.3942 20.8148 24.6094 22.3812 24.1404C23.3562 23.8487 24.3844 23.6779 25.448 23.6505C25.556 23.6473 25.664 23.6457 25.772 23.6457C25.8799 23.6457 25.9879 23.6457 26.0943 23.6489C27.1257 23.6779 28.1232 23.8375 29.0708 24.113C30.6228 24.5643 32.0426 25.3249 33.2577 26.3225C34.0328 26.9607 34.7258 27.6939 35.3156 28.5046L35.335 28.532L35.5574 28.8494L35.5687 28.8672L35.5751 28.8768L35.5912 28.901L37.1996 31.1927V31.191Z" fill="#92FC05"/>
<path d="M25.772 44.0497C27.7149 44.0497 29.29 42.4746 29.29 40.5316C29.29 38.5887 27.7149 37.0136 25.772 37.0136C23.829 37.0136 22.2539 38.5887 22.2539 40.5316C22.2539 42.4746 23.829 44.0497 25.772 44.0497Z" fill="#92FC05"/>
<path d="M27.954 1.6897V19.0817C27.3496 18.9689 26.7276 18.9012 26.0942 18.8835C25.9879 18.8819 25.8799 18.8803 25.7719 18.8803C25.6639 18.8803 25.556 18.8803 25.448 18.8835C24.8146 18.9012 24.1942 18.9689 23.5898 19.0833V1.6897H27.954Z" fill="#92FC05"/>
<path d="M75.5036 24.3802V20.7118H85.201V29.7393C82.9999 32.036 79.6186 33.4077 76.3329 33.4077C69.985 33.4077 64.594 28.2081 64.594 22.0515C64.594 15.895 69.985 10.7273 76.3329 10.7273C79.6186 10.7273 82.9999 12.099 85.201 14.3957L81.7877 17.458C80.4799 15.9588 78.3426 15.0018 76.3329 15.0018C72.6007 15.0018 69.4427 18.2555 69.4427 22.0515C69.4427 25.8795 72.6007 29.1332 76.3329 29.1332C77.8322 29.1332 79.3634 28.6228 80.6075 27.7296V24.3802H75.5036ZM96.4985 33.4077C91.586 33.4077 87.471 29.4522 87.471 24.763C87.471 20.0738 91.586 16.1502 96.4985 16.1502C101.379 16.1502 105.462 20.0738 105.462 24.763C105.462 29.4522 101.379 33.4077 96.4985 33.4077ZM96.4985 29.4841C98.9548 29.4841 101.028 27.3149 101.028 24.763C101.028 22.211 98.9548 20.0738 96.4985 20.0738C94.0104 20.0738 91.9369 22.211 91.9369 24.763C91.9369 27.3149 94.0104 29.4841 96.4985 29.4841ZM108.295 33.0249V11.1101H112.984L119.778 23.487L126.541 11.1101H131.262V33.0249H126.541V19.372L119.778 31.7489L112.984 19.372V33.0249H108.295ZM137.329 14.2681C135.893 14.2681 134.777 13.1197 134.777 11.7162C134.777 10.4083 135.893 9.22802 137.329 9.22802C138.701 9.22802 139.817 10.4083 139.817 11.7162C139.817 13.1197 138.701 14.2681 137.329 14.2681ZM134.968 33.0249V16.533H139.626V33.0249H134.968ZM151.124 33.4077C146.243 33.4077 142.128 29.4522 142.128 24.763C142.128 20.0738 146.275 16.1502 151.156 16.1502C153.836 16.1502 156.037 17.2347 157.632 18.9573L154.537 21.605C153.708 20.6799 152.4 20.0738 151.124 20.0738C148.7 20.0738 146.658 22.211 146.658 24.7311C146.658 27.3149 148.7 29.4841 151.156 29.4841C152.432 29.4841 153.772 28.8461 154.633 27.8891L157.727 30.5049C156.1 32.2912 153.867 33.4077 151.124 33.4077ZM167.651 33.4077C162.739 33.4077 158.624 29.4522 158.624 24.763C158.624 20.0738 162.739 16.1502 167.651 16.1502C172.532 16.1502 176.615 20.0738 176.615 24.763C176.615 29.4522 172.532 33.4077 167.651 33.4077ZM167.651 29.4841C170.108 29.4841 172.181 27.3149 172.181 24.763C172.181 22.211 170.108 20.0738 167.651 20.0738C165.163 20.0738 163.09 22.211 163.09 24.763C163.09 27.3149 165.163 29.4841 167.651 29.4841Z" fill="white"/>
</svg>
